<svg width="64" height="64" viewBox="0 0 64 64" fill="none" xmlns="http://www.w3.org/2000/svg">
<rect x="0.5" y="0.5" width="63" height="63" rx="7.5" fill="white" stroke="#EDEDED"/>
<path fill-rule="evenodd" clip-rule="evenodd" d="M18.2964 32.4988C18.2964 25.2207 24.2183 19.2988 31.4964 19.2988C38.7745 19.2988 44.6964 25.2207 44.6964 32.4988C44.6964 39.7769 38.7745 45.6988 31.4964 45.6988H19.1214C18.666 45.6988 18.2964 45.3292 18.2964 44.8738V32.4988ZM36.304 27.133C36.511 27.0494 36.7483 27.0959 36.9064 27.2545C37.0644 27.4126 37.1121 27.6499 37.0279 27.8563L32.0366 40.0571C31.9507 40.2673 31.7461 40.4021 31.5231 40.4021C31.5042 40.4021 31.4848 40.401 31.4653 40.3993C31.2202 40.3732 31.0216 40.1891 30.9779 39.9468L29.9369 34.224L24.2141 33.1836C23.9718 33.1393 23.7877 32.9407 23.7621 32.6956C23.7361 32.4504 23.8753 32.218 24.1032 32.1243L36.304 27.133Z" fill="#562CCA"/>
</svg>
