<svg width="24" height="24" viewBox="0 0 24 24" fill="none" xmlns="http://www.w3.org/2000/svg">
<path d="M12 0C5.37135 0 0 5.3723 0 12C0.00608271 14.6029 0.839344 17.1248 2.36066 19.1446C2.49279 19.3294 2.58258 19.5453 2.62271 19.7747C2.66284 20.0041 2.65218 20.2405 2.59159 20.4646L1.90734 23.16C1.88522 23.2462 1.885 23.3373 1.90672 23.4236C1.92844 23.5099 1.97129 23.5884 2.03078 23.6507C2.09026 23.713 2.16419 23.7569 2.24481 23.7777C2.32543 23.7986 2.40976 23.7956 2.48895 23.7692L5.91019 22.7584C6.22927 22.6669 6.5679 22.6979 6.86814 22.8461C8.48615 23.6105 10.2338 24.0034 12 24C18.6287 24 24 18.6277 24 12C24 5.3723 18.6287 0 12 0ZM7.72345 9.23076H5.15752V11.0769H7.72345V15.6923C7.72345 15.9371 7.63334 16.1719 7.47293 16.345C7.31253 16.5181 7.09498 16.6154 6.86814 16.6154H3.4469V14.7692H6.01283V12.9231H3.4469V8.30768C3.4469 8.06287 3.53701 7.82808 3.69741 7.65497C3.85782 7.48186 4.07537 7.38461 4.30221 7.38461H7.72345V9.23076ZM15.4212 16.6154H13.7106V9.23076H12.8553V16.6154H11.1447V9.23076H10.2894V16.6154H8.57876V8.30768C8.57876 8.06287 8.66887 7.82808 8.82927 7.65497C8.98968 7.48186 9.20723 7.38461 9.43407 7.38461H14.5659C14.7928 7.38461 15.0103 7.48186 15.1707 7.65497C15.3311 7.82808 15.4212 8.06287 15.4212 8.30768V16.6154ZM20.5531 9.23076H17.9872V11.0769H20.5531V15.6923C20.5531 15.9371 20.463 16.1719 20.3026 16.345C20.1422 16.5181 19.9246 16.6154 19.6978 16.6154H16.2766V14.7692H18.8425V12.9231H16.2766V8.30768C16.2766 8.06287 16.3667 7.82808 16.5271 7.65497C16.6875 7.48186 16.905 7.38461 17.1319 7.38461H20.5531V9.23076Z" fill="#3C7BF6"/>
</svg>
