<svg width="24" height="24" viewBox="0 0 24 24" fill="none" xmlns="http://www.w3.org/2000/svg">
<mask id="mask0" mask-type="alpha" maskUnits="userSpaceOnUse" x="0" y="0" width="24" height="24">
<rect width="24" height="24" rx="4" fill="white"/>
</mask>
<g mask="url(#mask0)">
<rect x="0.000488281" width="24" height="24" rx="12" fill="url(#paint0_linear)"/>
</g>
<path d="M4.73828 19.2248L5.76141 15.5081C5.13052 14.4179 4.79864 13.1816 4.79909 11.9233C4.79909 7.96781 8.03309 4.75 12.0003 4.75C13.9286 4.75 15.7352 5.49833 17.0946 6.85241C18.454 8.20656 19.2017 10.0097 19.2017 11.9268C19.2017 15.8823 15.9677 19.1001 12.0004 19.1001H11.9968C10.7912 19.1001 9.60709 18.7972 8.55534 18.227L4.73828 19.2249V19.2248Z" fill="url(#paint1_linear)"/>
<path d="M4.47656 19.4837L5.53544 15.6352C4.88437 14.5091 4.53731 13.2298 4.54094 11.922C4.54094 7.82405 7.88938 4.49219 12.0034 4.49219C13.9996 4.49219 15.8741 5.26542 17.2801 6.66943C18.6895 8.07345 19.4658 9.94072 19.4622 11.9256C19.4622 16.0236 16.1138 19.3554 11.9997 19.3554H11.9962C10.7501 19.355 9.52399 19.0438 8.42956 18.4503L4.47656 19.4838V19.4837ZM8.61556 17.1033L8.84094 17.2387C9.79256 17.8018 10.8836 18.0975 11.9962 18.1011H11.9998C15.4162 18.1011 18.1994 15.3323 18.1994 11.9256C18.1994 10.2757 17.5555 8.72559 16.3857 7.55678C15.2159 6.38797 13.6561 5.74654 11.9998 5.74654C8.57981 5.74654 5.79662 8.51535 5.79662 11.922C5.79662 13.0873 6.12212 14.224 6.74462 15.2075L6.89131 15.4427L6.26525 17.7198L8.61556 17.1033Z" fill="white"/>
<path d="M10.1346 8.81258C9.99509 8.50254 9.8484 8.49538 9.71609 8.49183C9.60877 8.48828 9.48359 8.48828 9.35834 8.48828C9.23315 8.48828 9.03277 8.5346 8.86109 8.71988C8.68934 8.90522 8.20996 9.35421 8.20996 10.2701C8.20996 11.1823 8.87896 12.066 8.97196 12.1907C9.06496 12.3155 10.2634 14.2504 12.1558 14.9952C13.7299 15.6153 14.0519 15.4905 14.3917 15.4584C14.7352 15.4264 15.4936 15.0094 15.651 14.5747C15.8048 14.14 15.8048 13.7693 15.7583 13.691C15.7118 13.6125 15.5866 13.5663 15.4005 13.4736C15.2145 13.3809 14.2987 12.9319 14.127 12.8678C13.9553 12.8037 13.8301 12.7752 13.7085 12.9604C13.5832 13.1457 13.2255 13.5627 13.1182 13.6874C13.0108 13.8121 12.9 13.8264 12.7139 13.7337C12.5279 13.6411 11.9269 13.445 11.215 12.8108C10.6605 12.319 10.2849 11.7096 10.1775 11.5244C10.0702 11.3391 10.1668 11.2392 10.2598 11.1466C10.3421 11.0647 10.4458 10.9292 10.5389 10.8224C10.6319 10.7155 10.6641 10.6371 10.7249 10.5123C10.7857 10.3876 10.7571 10.2807 10.7106 10.1881C10.6641 10.0954 10.2992 9.17958 10.1346 8.81258Z" fill="white"/>
<defs>
<linearGradient id="paint0_linear" x1="12" y1="23.9983" x2="12" y2="-0.00144051" gradientUnits="userSpaceOnUse">
<stop stop-color="#20B038"/>
<stop offset="1" stop-color="#60D66A"/>
</linearGradient>
<linearGradient id="paint1_linear" x1="11.9697" y1="19.2239" x2="11.9697" y2="4.74913" gradientUnits="userSpaceOnUse">
<stop stop-color="#20B038"/>
<stop offset="1" stop-color="#60D66A"/>
</linearGradient>
</defs>
</svg>
