<svg width="24" height="24" viewBox="0 0 24 24" fill="none" xmlns="http://www.w3.org/2000/svg">
<circle cx="12" cy="12" r="12" fill="url(#paint0_linear)"/>
<path d="M12.0008 5.34627C9.27093 5.34627 6.67868 5.10344 5.68854 7.64457C5.27955 8.6941 5.33895 10.0571 5.33895 12.0088C5.33895 13.7215 5.28406 15.3311 5.68854 16.3724C6.67642 18.915 9.28972 18.6714 11.9993 18.6714C14.6133 18.6714 17.3086 18.9436 18.3107 16.3724C18.7205 15.3123 18.6603 13.9696 18.6603 12.0088C18.6603 9.40607 18.8039 7.72576 17.5416 6.46422C16.2635 5.18614 14.5351 5.34627 11.9978 5.34627H12.0008ZM11.4038 6.54692C17.0981 6.5379 17.8228 5.90487 17.4228 14.6988C17.2807 17.8091 14.9125 17.4678 12.0015 17.4678C6.69371 17.4678 6.5411 17.3159 6.5411 12.0058C6.5411 6.63413 6.96211 6.54993 11.4038 6.54542V6.54692ZM15.5568 7.65284C15.1155 7.65284 14.7577 8.0107 14.7577 8.45201C14.7577 8.89333 15.1155 9.25119 15.5568 9.25119C15.9982 9.25119 16.356 8.89333 16.356 8.45201C16.356 8.0107 15.9982 7.65284 15.5568 7.65284ZM12.0008 8.58734C10.1115 8.58734 8.58001 10.1195 8.58001 12.0088C8.58001 13.8981 10.1115 15.4296 12.0008 15.4296C13.8901 15.4296 15.4208 13.8981 15.4208 12.0088C15.4208 10.1195 13.8901 8.58734 12.0008 8.58734ZM12.0008 9.78799C14.9366 9.78799 14.9404 14.2297 12.0008 14.2297C9.06568 14.2297 9.06117 9.78799 12.0008 9.78799Z" fill="white"/>
<defs>
<linearGradient id="paint0_linear" x1="1.6114" y1="22.4364" x2="23.849" y2="3.18621" gradientUnits="userSpaceOnUse">
<stop stop-color="#FFDD55"/>
<stop offset="0.5" stop-color="#FF543E"/>
<stop offset="1" stop-color="#C837AB"/>
</linearGradient>
</defs>
</svg>
