<svg width="30" height="30" viewBox="0 0 30 30" fill="none" xmlns="http://www.w3.org/2000/svg">
<path fill-rule="evenodd" clip-rule="evenodd" d="M0 15C0 6.72943 6.72942 0 15 0C23.2706 0 30 6.72943 30 15C30 23.2706 23.2706 30 15 30H0.9375C0.420052 30 0 29.5799 0 29.0625V15ZM20.4613 8.90204C20.6965 8.80686 20.9661 8.85986 21.1458 9.04006C21.3254 9.21975 21.3795 9.48942 21.2838 9.72392L15.612 23.5885C15.5143 23.8273 15.2818 23.9805 15.0284 23.9805C15.0069 23.9805 14.9849 23.9793 14.9627 23.9773C14.6842 23.9478 14.4586 23.7385 14.4088 23.4631L13.2259 16.9599L6.72277 15.7777C6.44738 15.7273 6.23814 15.5017 6.2091 15.2232C6.17954 14.9445 6.33775 14.6804 6.59673 14.5739L20.4613 8.90204Z" fill="white"/>
</svg>
