<svg width="27" height="27" viewBox="0 0 27 27" fill="none" xmlns="http://www.w3.org/2000/svg">
<path fill-rule="evenodd" clip-rule="evenodd" d="M0.296387 13.4988C0.296387 6.22073 6.21829 0.298828 13.4964 0.298828C20.7745 0.298828 26.6964 6.22073 26.6964 13.4988C26.6964 20.7769 20.7745 26.6988 13.4964 26.6988H1.12139C0.666045 26.6988 0.296387 26.3292 0.296387 25.8738V13.4988ZM18.304 8.13302C18.511 8.04936 18.7483 8.09588 18.9064 8.25449C19.0644 8.41259 19.1121 8.6499 19.0279 8.85626L14.0366 21.0571C13.9507 21.2673 13.7461 21.4021 13.5231 21.4021C13.5042 21.4021 13.4848 21.401 13.4653 21.3993C13.2202 21.3732 13.0216 21.1891 12.9779 20.9468L11.9369 15.224L6.21414 14.1836C5.97178 14.1393 5.78766 13.9407 5.76211 13.6956C5.73609 13.4504 5.87531 13.218 6.10323 13.1243L18.304 8.13302Z" fill="#562CCA"/>
</svg>
